<?xml version="1.0" encoding="iso-8859-1"?>
<!-- Generator: Adobe Illustrator 16.0.0, SVG Export Plug-In . SVG Version: 6.00 Build 0)  -->
<!DOCTYPE svg PUBLIC "-//W3C//DTD SVG 1.1//EN" "http://www.w3.org/Graphics/SVG/1.1/DTD/svg11.dtd">
<svg version="1.1" id="Layer_1" xmlns="http://www.w3.org/2000/svg" xmlns:xlink="http://www.w3.org/1999/xlink" x="0px" y="0px"
	 width="1468px" height="53px" viewBox="0 0 1468 53" style="enable-background:new 0 0 1468 53;" xml:space="preserve">
<g id="XMLID_6_">
	<g>
	</g>
	<g>
		<polygon style="fill:none;stroke:#E6E6E5;stroke-width:1.7778;stroke-miterlimit:10;" points="774.18,53.515 756.408,35.743 
			747.518,26.853 774.18,0.191 800.851,26.853 		"/>
		<polygon style="fill:none;stroke:#E6E6E5;stroke-width:1.7778;stroke-miterlimit:10;" points="694.185,53.515 667.523,26.853 
			694.185,0.191 711.956,17.962 720.846,26.853 710.184,37.516 		"/>
		<polyline style="fill:none;stroke:#E6E6E5;stroke-width:1.7778;stroke-miterlimit:10;" points="734.187,13.522 720.846,26.853 
			726.183,32.189 734.187,40.193 747.518,26.853 800.851,26.853 756.408,35.743 734.187,40.193 		"/>
		<polyline style="fill:none;stroke:#E6E6E5;stroke-width:1.7778;stroke-miterlimit:10;" points="-0.22,26.853 667.523,26.853 
			711.956,17.962 734.187,13.522 694.185,0.191 		"/>
		
			<line style="fill:none;stroke:#E6E6E5;stroke-width:1.7778;stroke-miterlimit:10;" x1="1468.226" y1="26.853" x2="800.851" y2="26.853"/>
		<polyline style="fill:none;stroke:#E6E6E5;stroke-width:1.7778;stroke-miterlimit:10;" points="774.18,53.515 716,38.968 
			710.184,37.516 667.523,26.853 		"/>
		<polyline style="fill:none;stroke:#E6E6E5;stroke-width:1.7778;stroke-miterlimit:10;" points="774.18,0.191 726.183,32.189 
			716,38.968 694.185,53.515 		"/>
	</g>
</g>
</svg>
