<?xml version="1.0" encoding="iso-8859-1"?>
<!-- Generator: Adobe Illustrator 16.0.0, SVG Export Plug-In . SVG Version: 6.00 Build 0)  -->
<!DOCTYPE svg PUBLIC "-//W3C//DTD SVG 1.1//EN" "http://www.w3.org/Graphics/SVG/1.1/DTD/svg11.dtd">
<svg version="1.1" id="Layer_1" xmlns="http://www.w3.org/2000/svg" xmlns:xlink="http://www.w3.org/1999/xlink" x="0px" y="0px"
	 width="296px" height="30px" viewBox="0 0 296 30" style="enable-background:new 0 0 296 30;" xml:space="preserve">
<g>
	<g id="XMLID_10_">
		<g>
		</g>
		<g>
			<polygon style="fill:none;stroke:#E6E6E5;stroke-miterlimit:10;" points="170.471,29.998 160.474,20.002 155.473,15 
				170.471,0.003 185.473,15 			"/>
			<polygon style="fill:none;stroke:#E6E6E5;stroke-miterlimit:10;" points="125.473,29.998 110.476,15 125.473,0.003 135.47,10 
				140.471,15 134.473,20.998 			"/>
			<polyline style="fill:none;stroke:#E6E6E5;stroke-miterlimit:10;" points="147.975,7.502 140.471,15 143.472,18.002 
				147.975,22.505 155.473,15 185.473,15 160.474,20.002 147.975,22.505 			"/>
			<polyline style="fill:none;stroke:#E6E6E5;stroke-miterlimit:10;" points="0.001,15 110.476,15 135.47,10 147.975,7.502 
				125.473,0.003 			"/>
			<line style="fill:none;stroke:#E6E6E5;stroke-miterlimit:10;" x1="296.001" y1="15" x2="185.473" y2="15"/>
			<polyline style="fill:none;stroke:#E6E6E5;stroke-miterlimit:10;" points="170.471,29.998 137.745,21.815 134.473,20.998 
				110.476,15 			"/>
			<polyline style="fill:none;stroke:#E6E6E5;stroke-miterlimit:10;" points="170.471,0.003 143.472,18.002 137.745,21.815 
				125.473,29.998 			"/>
		</g>
	</g>
</g>
</svg>
