<?xml version="1.0" encoding="utf-8"?>
<!-- Generator: Adobe Illustrator 16.0.0, SVG Export Plug-In . SVG Version: 6.00 Build 0)  -->
<!DOCTYPE svg PUBLIC "-//W3C//DTD SVG 1.1//EN" "http://www.w3.org/Graphics/SVG/1.1/DTD/svg11.dtd">
<svg version="1.1" id="Grid" xmlns="http://www.w3.org/2000/svg" xmlns:xlink="http://www.w3.org/1999/xlink" x="0px" y="0px"
	 width="1080px" height="768px" viewBox="0 0 1080 768" enable-background="new 0 0 1080 768" xml:space="preserve">
<g>
	<defs>
		<rect id="SVGID_1_" width="1080" height="768"/>
	</defs>
	<clipPath id="SVGID_2_">
		<use xlink:href="#SVGID_1_"  overflow="visible"/>
	</clipPath>
	<path opacity="0.45" clip-path="url(#SVGID_2_)" fill="#FFFFFF" enable-background="new    " d="M998.708,319.288l-108.416,149.3
		l0.482,0.393l96.606,70.192L950.51,652.694L757.92,792.174h1.704l191.397-138.618l172.896,56.202v-1.05l-171.366-55.705
		l132.326-42.993l39.04,28.365v-1.234l-37.866-27.512l37.866-12.303v-1.052l-38.864,12.626l-36.44-26.476l75.306-54.888v-1.238
		l-76.155,55.507l-59.207-43.017l59.623-183.562l75.739,55.026v-1.236l-75.146-54.596l75.146-54.598v-1.236l-75.997,55.216
		l-47.817-34.741l25.141-34.604h98.675v-1h-97.947l81.842-112.655l16.105,30.635v-2.146l-14.601-27.771l14.601,10.608v-1.236
		l-13.189-9.584l13.189,4.288v-1.052l-15.642-5.085l-59.271-182.37c-0.356-0.024-0.716-0.047-1.074-0.071l59.395,182.756
		l-82.592,113.688h-73.64l-89.521-65.038l-0.588,0.808l89.654,65.133L998.708,319.288z M1047.767,583.047l36.113,26.238
		l-130.11,42.271L1047.767,583.047z M1046.915,582.428l-95.027,69.263l36.347-111.899L1046.915,582.428z M987.708,538.174
		l-95.92-69.69l155.176-112.744L987.708,538.174z M1047.071,354.425L893.198,466.223l106.317-146.347L1047.071,354.425z
		 M1024.009,284.462l-24.713,34.016l-46.824-34.016H1024.009z"/>
	<path opacity="0.45" clip-path="url(#SVGID_2_)" fill="#FFFFFF" enable-background="new    " d="M404.784,780.407l-156.35-50.827
		v-62.631l-0.924-0.393l-59.643,43.336l-133.59-43.429l-85.56-263.268v3.234l84.608,260.343L-29.267,780.46h-2.017v1h1.29
		l-1.29,1.775v1.702l2.526-3.479H89.366L74.62,792.175h1.701l14.747-10.714h22.498l5.633,10.714h1.13l-5.633-10.714h96.057
		l14.748,10.714h1.7l-14.746-10.714h34.98v10.714h1v-10.714h155.754l-3.48,10.714h1.05l3.544-10.91L404.784,780.407z
		 M186.868,710.619l-35.957,26.125l-94.182-68.43L186.868,710.619z M150.06,737.361l-42.365,30.78L55.32,668.526L150.06,737.361z
		 M90.741,780.461h-118.77l81.842-112.654l53.064,100.931L90.741,780.461z M92.442,780.461l14.904-10.83l5.693,10.83H92.442z
		 M114.169,780.461l-6.004-11.423l42.746-31.057l58.467,42.479H114.169z M247.435,780.461H211.08l-59.318-43.1L188.042,711
		l59.393,19.307V780.461L247.435,780.461z M247.435,729.256l-58.393-18.981l58.393-42.427V729.256z M248.435,780.461v-49.828
		l153.281,49.828H248.435z"/>
	<path opacity="0.45" clip-path="url(#SVGID_2_)" fill="#FFFFFF" enable-background="new    " d="M537.354-15.953l323.635,235.186
		l0.588-0.808L539.23-15.823C538.604-15.863,537.979-15.909,537.354-15.953z"/>
	<path opacity="0.45" clip-path="url(#SVGID_2_)" fill="#FFFFFF" enable-background="new    " d="M430.831-27.945l-75.23,103.553
		l33.943-104.494c-0.351,0.001-0.703,0.003-1.054,0.004l-33.841,104.18V-28.347c-0.333,0.008-0.667,0.019-1,0.026V77.473
		L234.947-8.771l13.387-15.739c-0.451,0.016-0.902,0.032-1.353,0.048L234.136-9.361L214.32-23.759
		c-0.563,0.005-1.125,0.005-1.688,0.009l20.856,15.153L201.966,28.46L44.835-22.618c-0.873,0.066-1.746,0.13-2.618,0.201
		l159.048,51.701l-41.549,48.847l0.381,0.325l-0.477-0.154L-20.624,640.729l0.951,0.31L160.541,78.704l41.752-49.086l151.46,49.234
		l0.603,0.195l77.67-106.929C431.626-27.904,431.229-27.923,430.831-27.945z M202.994,28.794l31.304-36.8l117.004,85.009
		L202.994,28.794z"/>
</g>
</svg>
