<?xml version="1.0" encoding="utf-8"?>
<!-- Generator: Adobe Illustrator 18.1.1, SVG Export Plug-In . SVG Version: 6.00 Build 0)  -->
<svg version="1.1" id="Grid" xmlns="http://www.w3.org/2000/svg" xmlns:xlink="http://www.w3.org/1999/xlink" x="0px" y="0px"
	 viewBox="0 0 4320 3863.8" enable-background="new 0 0 4320 3863.8" xml:space="preserve">
<path opacity="0.45" fill="#FFFFFF" d="M3448.8,2331.5l-71.8-23.4l53.2-62.5c-0.1-0.8-0.2-1.5-0.4-2.3l-54.6,64.2l-350.6-114
	l235.2-76.4l169.5,123.2c-0.1-0.8-0.2-1.6-0.4-2.4c0,0,0-0.1,0-0.1l-167-121.4l146.9-47.7c0-0.6-0.1-1.2-0.1-1.8l-148.5,48.3
	l-64.8-47.1l211-153.8c0-0.7,0-1.5,0.1-2.2l-212.6,154.9l-105.3-76.5l106-326.3l215.9,156.8c0-0.7,0.1-1.4,0.1-2.1l-214.9-156.2
	l171.2-124.4h40l22.7,43.3c0.1-1.1,0.2-2.2,0.3-3.3l-21-40h24.2c0-0.6,0.1-1.2,0.1-1.8h-25.3l-10.7-20.3l39.5-28.7
	c0.1-0.8,0.1-1.5,0.2-2.3l-40.5,29.4l-93.1-177.1l136.4,99.1c0-0.7,0.1-1.4,0.1-2.1l-134-97.4l136,44.2c0-0.6,0-1.2,0.1-1.9
	l-140.4-45.6l-115.3-354.8c-0.6,0-1.2,0.1-1.8,0.1l115.4,355.2l-146.8,202.1H3022l-159.1-115.6l-1,1.4l159.4,115.8l85.5,62.1
	l-192.7,265.4l0.9,0.7l171.7,124.8l-65.5,201.8L2673.1,2445l1,1.4l347.7-251.8l352,114.4l-73.9,86.8l0.7,0.6l-0.8-0.3l-60.4,186
	l1.7,0.5l60.4-185.8l74.2-87.3l73.7,23.9C3449.2,2332.9,3449,2332.2,3448.8,2331.5z M3193.8,2069.3l64.2,46.6l-231.3,75.1
	L3193.8,2069.3z M3405.9,1536.7h-36.6l26.5-19.3L3405.9,1536.7z M3300.6,1336.4l94.3,179.4l-28.7,20.8h-211.1L3300.6,1336.4z
	 M3153.8,1538.5h210l-169.7,123.3l-85-61.8L3153.8,1538.5z M3024.4,1538.5h127.2l-43.9,60.5L3024.4,1538.5z M3108.1,1601.4
	l84.5,61.4L2919,1861.6L3108.1,1601.4z M2916.5,1865.6l275.9-200.4l-105.3,324.3L2916.5,1865.6z M3088,1992.4l104.3,75.8
	l-168.9,123.1L3088,1992.4z"/>
<path opacity="0.45" fill="#FFFFFF" d="M2353.6,2748c0,0.1,0,0.2,0,0.2h-195.7l-171.8-124.8l65.6-201.8l-0.9-1.5l-278-90.4v-111.3
	l-1.6-0.7l-106,77l-237.5-77.2L1222.7,1587l-1.7,0.5l204.9,630.6l-146.8,202.1h-130.9l-159.1-115.6l-1,1.4l159.4,115.8l85.5,62.1
	l-192.7,265.4l0.9,0.7l171.7,124.8l-65.5,201.8l-347.8,251.9l1,1.4l347.7-251.8l352,114.4l-73.9,86.8l0.7,0.6l-0.8-0.3l-60.4,186
	l1.7,0.5l60.4-185.8l74.2-87.3l269.3,87.5l60.3,185.6l1.7-0.5l-60.3-185.6l192.1-264.4l85.4,62.1l158.5,115.1l1-1.4l-158.5-115.1
	l-85.4-62.1l192-264.3h197.3v-0.9c0-0.2,0-0.3,0-0.5c0-0.2,0-0.4,0-0.6H2353.6z M2155.7,2748.9l-235.1,76.4l65-200L2155.7,2748.9z
	 M1321.6,2951.7l277.1-202l171.3,124.4l-383.6,124.6L1321.6,2951.7z M1384.3,2999.5l-231.3,75.1l167.1-121.8L1384.3,2999.5z
	 M1599.4,2344.7l103.9,75.5h-169.3l-10.7-20.3L1599.4,2344.7z M1522.6,2398.3l-93.1-177.1l168.4,122.4L1522.6,2398.3z M1708.8,2422
	h62.2v45.2L1708.8,2422z M1771,2469.4v401.5L1535,2422h170.8L1771,2469.4z M1706.4,2420.2l-105.5-76.6l64.5-46.9l105.6,34.3v89.2
	H1706.4z M1532.1,2420.2h-36.6l26.5-19.3L1532.1,2420.2z M1533,2422l236.3,449.5l-169.7-123.3l-0.7-0.9l-0.3,0.2l-276.9-201.1
	L1493,2422H1533z M1320.3,2545.3l-85-61.8l44.7-61.5h210L1320.3,2545.3z M1597.2,2748.6l-277.1,202l-105.3-76.5l106-326.3
	L1597.2,2748.6z M1769.2,2876.3l-210.6,247.6l-170.4-123.8L1769.2,2876.3z M1771,2876.9v401.4L1560,3125L1771,2876.9z
	 M1772.8,2876.2l104.7,76l-104.7,322.2V2876.2z M1773.8,2874.8l144-46.8l-39.8,122.5L1773.8,2874.8z M1772.8,2873.2v-402.6
	l211.2,153.5l-65.5,201.8L1772.8,2873.2z M1772.8,2468.5V2422h276.9l-65.1,200.4L1772.8,2468.5z M2050.9,2421.1L2050.9,2421.1
	L2050.9,2421.1L2050.9,2421.1z M2045.3,2420.2h-272.5v-88.6L2045.3,2420.2z M1771,2220v109.2l-103.8-33.7L1771,2220z M1599.4,2342.5
	L1432,2220.9l231.4,75.2L1599.4,2342.5z M1426.8,2220l94.3,179.4l-28.7,20.8h-211.1L1426.8,2220z M1150.6,2422h127.2l-43.9,60.5
	L1150.6,2422z M1318.8,2546.4l-273.6,198.8l189-260.2L1318.8,2546.4z M1042.8,2749.2l275.9-200.4l-105.3,324.3L1042.8,2749.2z
	 M1318.5,2951.7l-168.9,123.1l64.6-198.9L1318.5,2951.7z M1150.8,3077.2l235.2-76.4l171.4,124.5l-56,65.9L1150.8,3077.2z
	 M1558.8,3126.3l208,151.1l-263.7-85.7L1558.8,3126.3z M1774.5,3275l104.5-321.6l84.6,61.4L1774.5,3275z M1879.5,2951.6l40.4-124.3
	l235.4-76.5l-190.7,262.5L1879.5,2951.6z"/>
<path opacity="0.45" fill="#FFFFFF" d="M2101.1,977.5l-137.8,189.7l61.6-189.7h-1.9l-61.4,189.2V977.5c-0.6,0-1.2,0-1.8,0v193
	l-211-153.3l26.3-30.9c-0.8,0-1.6,0-2.4,0.1l-25.3,29.8l-43.2-31.4c-1.1-0.1-2.3-0.2-3.4-0.3l45.5,33l-56,65.9l-315.1-102.4
	c-0.6,0.4-1.1,0.9-1.7,1.3l315.5,102.6l-73.9,86.8l0.7,0.6l-0.8-0.3l-320.4,999.9l1.7,0.5l320.4-999.7l74.2-87.3l269.3,87.5l1.1,0.3
	l142.2-195.8H2101.1z M1692,1083.9l55.7-65.4l208,151.1L1692,1083.9z"/>
</svg>
