<?xml version="1.0" encoding="utf-8"?>
<!-- Generator: Adobe Illustrator 16.0.0, SVG Export Plug-In . SVG Version: 6.00 Build 0)  -->
<!DOCTYPE svg PUBLIC "-//W3C//DTD SVG 1.1//EN" "http://www.w3.org/Graphics/SVG/1.1/DTD/svg11.dtd">
<svg version="1.1" id="Layer_1" xmlns="http://www.w3.org/2000/svg" xmlns:xlink="http://www.w3.org/1999/xlink" x="0px" y="0px"
	 width="273.634px" height="99.555px" viewBox="0 0 273.634 99.555" enable-background="new 0 0 273.634 99.555"
	 xml:space="preserve">
<path fill="#FFFFFF" d="M37.636,99.555L2.066,50.563l55.444,18.014l9.769,30.085l-1.229,0.894h3.297l-0.08-0.244L93.421,81.76
	v17.795h1.692V82.243l14.703,17.312h2.213L96.476,81.241l56.357,18.313h2.737L95.699,80.101l41.002-29.787l66.625,48.411
	l-1.144,0.83h3.729l-0.429-0.312l24.467-17.775l5.873,18.087h1.775l-6.216-19.131L273.634,49.7L237.522,0h-2.092l33.217,45.712
	L205.84,0.086L205.958,0h-4.567l1.367,0.234l-66.336,48.191L120.688,0h-0.889l15.908,48.949L95.113,78.438V0h-1.692v79.361
	L59.174,68.229L43.281,19.319L69.863,0h-2.877l-24.25,17.625L37.011,0h-1.779l6.065,18.674L0.005,48.69H0v1.896l35.552,48.968
	H37.636z M271.025,49.534l-40.188,29.204L206.006,2.291L271.025,49.534z M203.957,1.451l25.439,78.328l-25.352,18.422
	l-66.629-48.406L203.957,1.451z M92.871,80.065L68.718,97.62l-9.226-28.397L92.871,80.065z M41.848,20.369L57.186,67.58
	L1.694,49.553L41.848,20.369z"/>
</svg>
