<?xml version="1.0" encoding="utf-8"?>
<!-- Generator: Adobe Illustrator 15.0.0, SVG Export Plug-In . SVG Version: 6.00 Build 0)  -->
<!DOCTYPE svg PUBLIC "-//W3C//DTD SVG 1.1//EN" "http://www.w3.org/Graphics/SVG/1.1/DTD/svg11.dtd">
<svg version="1.1" id="Layer_1" xmlns="http://www.w3.org/2000/svg" xmlns:xlink="http://www.w3.org/1999/xlink" x="0px" y="0px"
	 width="777.716px" height="903.046px" viewBox="0 0 777.716 903.046" enable-background="new 0 0 777.716 903.046"
	 xml:space="preserve">
<g>
	<g>
		<g>
			<g>
				<line fill="none" stroke="#E6E6E6" stroke-miterlimit="10" x1="275.49" y1="2.046" x2="296.383" y2="392.53"/>
				<line fill="none" stroke="#E6E6E6" stroke-miterlimit="10" x1="440.682" y1="431.083" x2="275.49" y2="2.046"/>
				<line fill="none" stroke="#E6E6E6" stroke-miterlimit="10" x1="680.115" y1="145.524" x2="440.682" y2="431.083"/>
				<line fill="none" stroke="#E6E6E6" stroke-miterlimit="10" x1="202.24" y1="276.569" x2="609.986" y2="390.073"/>
				<line fill="none" stroke="#E6E6E6" stroke-miterlimit="10" x1="577.929" y1="3.858" x2="565.617" y2="282.081"/>
				<line fill="none" stroke="#E6E6E6" stroke-miterlimit="10" x1="577.929" y1="3.858" x2="275.49" y2="2.046"/>
				<line fill="none" stroke="#E6E6E6" stroke-miterlimit="10" x1="680.115" y1="145.524" x2="275.49" y2="2.046"/>
				<line fill="none" stroke="#E6E6E6" stroke-miterlimit="10" x1="609.986" y1="390.073" x2="296.382" y2="392.53"/>
				<line fill="none" stroke="#E6E6E6" stroke-miterlimit="10" x1="609.986" y1="390.073" x2="338.592" y2="165.935"/>
				<line fill="none" stroke="#E6E6E6" stroke-miterlimit="10" x1="609.986" y1="390.073" x2="680.115" y2="145.524"/>
				<line fill="none" stroke="#E6E6E6" stroke-miterlimit="10" x1="202.24" y1="276.569" x2="275.49" y2="2.046"/>
				<line fill="none" stroke="#E6E6E6" stroke-miterlimit="10" x1="577.929" y1="3.858" x2="291.508" y2="301.419"/>
			</g>
		</g>
	</g>
	<g>
		<g>
			<g>
				<line fill="none" stroke="#E6E6E6" stroke-miterlimit="10" x1="700.316" y1="833.69" x2="609.986" y2="389.542"/>
				<line fill="none" stroke="#E6E6E6" stroke-miterlimit="10" x1="5" y1="651.282" x2="700.316" y2="833.69"/>
				<line fill="none" stroke="#E6E6E6" stroke-miterlimit="10" x1="453.185" y1="573.401" x2="689.951" y2="896.69"/>
				<path fill="none" stroke="#E6E6E6" stroke-miterlimit="10" d="M676.031,788.286"/>
				<path fill="none" stroke="#E6E6E6" stroke-miterlimit="10" d="M853.186,573.401"/>
				<path fill="none" stroke="#E6E6E6" stroke-miterlimit="10" d="M609.986,389.542"/>
				<path fill="none" stroke="#E6E6E6" stroke-miterlimit="10" d="M853.186,573.401"/>
				<line fill="none" stroke="#E6E6E6" stroke-miterlimit="10" x1="5" y1="651.282" x2="609.986" y2="389.542"/>
				<line fill="none" stroke="#E6E6E6" stroke-miterlimit="10" x1="689.951" y1="896.69" x2="394.5" y2="714.617"/>
				<line fill="none" stroke="#E6E6E6" stroke-miterlimit="10" x1="689.951" y1="896.69" x2="500.6" y2="359.623"/>
				<line fill="none" stroke="#E6E6E6" stroke-miterlimit="10" x1="689.951" y1="896.69" x2="5" y2="651.282"/>
				<line fill="none" stroke="#E6E6E6" stroke-miterlimit="10" x1="453.185" y1="573.401" x2="609.986" y2="389.542"/>
			</g>
		</g>
	</g>
</g>
</svg>
