<?xml version="1.0" encoding="utf-8"?>
<!-- Generator: Adobe Illustrator 16.0.0, SVG Export Plug-In . SVG Version: 6.00 Build 0)  -->
<!DOCTYPE svg PUBLIC "-//W3C//DTD SVG 1.1//EN" "http://www.w3.org/Graphics/SVG/1.1/DTD/svg11.dtd">
<svg version="1.1" id="Layer_1" xmlns="http://www.w3.org/2000/svg" xmlns:xlink="http://www.w3.org/1999/xlink" x="0px" y="0px"
	 width="300px" height="300px" viewBox="0 0 300 300" enable-background="new 0 0 300 300" xml:space="preserve">
<g>
	<path fill="#082336" d="M150.041,269.077c1.948,0,3.504,1.553,3.504,3.506c0,1.947-1.557,3.502-3.504,3.502
		c-1.949,0-3.506-1.555-3.506-3.502C146.535,270.63,148.092,269.077,150.041,269.077"/>
	<polygon fill="#082336" points="206.886,248.088 218.238,263.709 213.447,243.696 214.579,242.872 232.049,253.488 
		220.788,237.988 222.042,237.074 234.737,254.548 232.939,255.853 215.202,245.02 220.149,265.148 218.324,266.473 205.627,249 	
		"/>
	<path fill="#082336" d="M253.334,194.482c-0.804-1.671-1.099-3.721-0.374-5.95c0.725-2.23,2.168-3.719,3.799-4.596
		c2.983-1.594,6.459-0.754,9.414,0.209c2.956,0.96,6.233,2.313,7.709,5.354c0.802,1.67,1.1,3.721,0.374,5.95
		c-0.724,2.228-2.17,3.715-3.8,4.594c-2.984,1.596-6.431,0.763-9.385-0.199C258.117,198.889,254.813,197.525,253.334,194.482
		 M269.826,198.622c1.394-0.73,2.435-2.063,2.953-3.653c0.517-1.592,0.456-3.278-0.24-4.689c-1.281-2.655-4.441-3.781-6.874-4.572
		c-2.432-0.788-5.677-1.748-8.277-0.349c-1.393,0.734-2.432,2.062-2.95,3.653c-0.516,1.593-0.454,3.278,0.238,4.691
		c1.282,2.655,4.472,3.789,6.903,4.58C264.014,199.073,267.231,200.021,269.826,198.622"/>
	<path fill="#082336" d="M256.919,126.335c-1.631-0.881-3.074-2.362-3.797-4.595c-0.723-2.231-0.432-4.28,0.371-5.948
		c1.479-3.044,4.783-4.41,7.737-5.368c2.955-0.961,6.4-1.792,9.385-0.201c1.63,0.883,3.074,2.37,3.8,4.598
		c0.727,2.231,0.43,4.279-0.373,5.952c-1.478,3.041-4.753,4.395-7.711,5.354C263.379,127.084,259.902,127.925,256.919,126.335
		 M272.699,119.991c0.696-1.413,0.756-3.1,0.238-4.69c-0.52-1.597-1.559-2.922-2.947-3.653c-2.603-1.399-5.818-0.451-8.251,0.337
		c-2.434,0.796-5.621,1.924-6.904,4.585c-0.693,1.409-0.754,3.098-0.235,4.688c0.517,1.595,1.556,2.921,2.946,3.657
		c2.601,1.399,5.845,0.44,8.278-0.351C268.258,123.77,271.418,122.648,272.699,119.991"/>
	<polygon fill="#082336" points="210.249,64.577 222.943,47.104 224.226,48.035 212.407,64.298 221.476,70.888 220.598,72.097 	"/>
	<path fill="#082336" d="M156.344,44.808c-1.555,1.248-3.503,1.497-5.422,1.497h-7.647V24.702h7.647c1.614,0,3.318,0.245,4.689,1.16
		c1.371,0.914,2.226,2.53,2.226,4.143c0,2.348-0.974,4.389-3.444,5.06c2.682,0.637,3.931,2.798,3.931,5.266
		C158.322,42.038,157.715,43.709,156.344,44.808 M150.921,26.201h-6.062v8.07h6.062c2.985,0,5.3-0.703,5.3-4.143
		C156.222,27.11,153.54,26.201,150.921,26.201 M150.921,35.795h-6.062v9.012h6.062c2.955,0,5.789-0.848,5.789-4.6
		C156.71,36.676,154.06,35.795,150.921,35.795"/>
	<path fill="#082336" d="M89.841,61.949c-0.301,1.757-1.31,3.584-3.158,4.926l-5.791,4.21L68.195,53.611l5.79-4.209
		c1.851-1.344,3.899-1.739,5.668-1.476c3.265,0.451,5.431,3.018,7.204,5.457S90.42,58.7,89.841,61.949 M79.327,49.443
		c-1.5-0.195-3.122,0.268-4.426,1.216l-4.51,3.278l10.868,14.961l4.511-3.281c1.306-0.946,2.246-2.347,2.526-3.828
		c0.485-2.759-1.223-5.364-2.743-7.458C84.029,52.238,82.083,49.814,79.327,49.443"/>
	<polygon fill="#082336" points="45.016,127.217 24.476,120.541 28.748,107.388 30.198,107.863 26.423,119.475 33.955,121.925 
		37.279,111.697 38.73,112.168 35.404,122.396 44.066,125.209 47.842,113.592 49.29,114.064 	"/>
	<polygon fill="#082336" points="48.63,194.265 28.091,200.938 23.817,187.786 25.265,187.315 29.041,198.934 36.572,196.487 
		33.252,186.261 34.7,185.787 38.022,196.017 46.685,193.198 42.911,181.583 44.359,181.109 	"/>
	<path fill="#082336" d="M80.295,240.547c2.025-0.3,4.169,0.429,6.189,1.898c1.997,1.451,3.256,3.345,3.52,5.42
		c0.198,1.539-0.104,3.201-0.95,4.62l-1.329-0.97c0.629-1.123,0.836-2.439,0.671-3.618c-0.24-1.639-1.352-3.164-2.805-4.221
		c-1.506-1.091-3.295-1.791-4.92-1.576c-1.045,0.146-2.055,0.654-2.86,1.762c-1.22,1.677-0.97,4.08,0.932,5.871l2.947,2.784
		c2.232,2.11,3.035,4.84,1.083,7.527c-1.056,1.455-2.45,2.023-3.93,2.192c-1.798,0.197-3.796-0.425-5.42-1.606
		c-1.874-1.359-3.192-3.487-3.335-5.361c-0.116-1.398,0.056-2.669,0.871-3.997l1.304,0.948c-0.522,0.977-0.731,1.839-0.651,2.918
		c0.085,1.49,1.104,3.096,2.705,4.26c1.256,0.912,2.697,1.471,4.1,1.359c1.094-0.108,2.2-0.547,3.027-1.684
		c1.502-2.07,0.598-3.927-0.863-5.29l-2.996-2.816c-2.461-2.319-2.895-5.608-1.105-8.071
		C77.589,241.369,78.891,240.771,80.295,240.547"/>
	<path fill="#082336" d="M279.763,155.589v-1.187h-34.087l-28.972-21.06l11.081-34.112l27.139-19.718l-0.697-0.962l-27.05,19.657
		L180.133,82.91V64.25l10.429-32.092l-1.13-0.362L179.035,63.79l-17.85,12.963L120.98,63.686l-10.362-31.887l-1.127,0.364
		l10.359,31.886L94.993,98.271H72.959L45.843,78.573l-0.695,0.957l27.272,19.814l14.263,10.363l-32.467,44.696H20.234v1.187h34.092
		l29.012,21.077l-11.075,34.091l-26.935,19.567l0.697,0.956l26.846-19.503l59.386,19.306l-12.201,14.366l-0.075,0.089
		l-10.375,31.934l1.126,0.363l10.305-31.709l12.438-14.647l45.593,14.822l10.253,31.545l1.128-0.365l-10.251-31.545l32.453-44.709
		l41.393,30.074l0.698-0.96l-41.396-30.074l32.438-44.678H279.763z M244.489,155.008l-38.932,12.646l10.761-33.124L244.489,155.008z
		 M103.023,189.505l46.746-33.964l28.764,20.897l-64.598,20.991L103.023,189.505z M112.542,197.886l-38.086,12.373l27.563-20.021
		L112.542,197.886z M150.466,154.584l14.535-44.729l13.945-2.391v67.811L150.466,154.584z M103.421,120.403l60.92-10.437
		l-14.379,44.249L103.421,120.403z M165.208,109.215l3.11-9.574l10.071,7.318L165.208,109.215z M170.083,99.458h8.863v6.44
		L170.083,99.458z M168.765,98.271l5.231-16.106l4.95,1.61v14.496H168.765z M168.204,98.089l-17.177-12.487l10.369-7.533
		l12.037,3.913L168.204,98.089z M166.436,98.271h-32.84l16.425-11.933L166.436,98.271z M167.757,99.458l-3.21,9.875l-60.417,10.347
		l27.834-20.221H167.757z M102.269,119.569l-13.931-10.125l7.257-9.987h34.351L102.269,119.569z M149.267,155.178l-46.747,33.963
		l-17.788-12.928l17.85-54.955L149.267,155.178z M177.993,177.238l-35.053,41.267l-28.413-20.642L177.993,177.238z M178.946,177.945
		v66.719l-35.045-25.459L178.946,177.945z M180.133,177.603l16.948,12.313l-16.948,52.175V177.603z M180.521,176.415l23.418-7.607
		l-6.473,19.923L180.521,176.415z M180.133,175.919v-67.694l35.18,25.571l-11.149,34.314L180.133,175.919z M180.133,106.76v-7.302
		h46.332l-10.77,33.15L180.133,106.76z M223.541,98.271h-43.408v-14.11L223.541,98.271z M174.365,81.041l4.581-14.105v15.591
		L174.365,81.041z M178.821,65.412l-5.021,15.445l-11.217-3.649L178.821,65.412z M150.021,84.872l-26.135-18.996l36.117,11.745
		L150.021,84.872z M120.641,64.985l28.369,20.617l-17.433,12.668H96.459L120.641,64.985z M74.591,99.458h19.541l-6.751,9.295
		L74.591,99.458z M101.262,120.301l-44.068,32.014l30.45-41.908L101.262,120.301z M55.526,154.995l45.619-33.146l-17.423,53.633
		L55.526,154.995z M101.512,189.871l-27.77,20.179l10.605-32.651L101.512,189.871z M74.207,210.966l38.927-12.648l29.038,21.093
		l-9.084,10.697L74.207,210.966z M134.307,230.501l8.824-10.389l33.029,23.997L134.307,230.501z M181.259,242.451l16.83-51.805
		l13.603,9.888L181.259,242.451z M198.473,189.463l6.856-21.111l38.898-12.637l-31.84,43.854L198.473,189.463z"/>
</g>
</svg>
