<?xml version="1.0" encoding="iso-8859-1"?>
<!-- Generator: Adobe Illustrator 16.0.0, SVG Export Plug-In . SVG Version: 6.00 Build 0)  -->
<!DOCTYPE svg PUBLIC "-//W3C//DTD SVG 1.0//EN" "http://www.w3.org/TR/2001/REC-SVG-20010904/DTD/svg10.dtd">
<svg version="1.0" id="Layer_1" xmlns="http://www.w3.org/2000/svg" xmlns:xlink="http://www.w3.org/1999/xlink" x="0px" y="0px"
	 width="700px" height="950px" viewBox="0 0 700 950" style="enable-background:new 0 0 700 950;" xml:space="preserve">
<g>
	<g>
		<g>
			<line style="fill:none;stroke:#E6E6E5;stroke-miterlimit:10;" x1="402.818" y1="839.504" x2="544.688" y2="328.864"/>
			<line style="fill:none;stroke:#E6E6E5;stroke-miterlimit:10;" x1="402.818" y1="208.279" x2="402.818" y2="839.504"/>
			<line style="fill:none;stroke:#E6E6E5;stroke-miterlimit:10;" x1="19.929" y1="456.042" x2="402.818" y2="208.279"/>
			<line style="fill:none;stroke:#E6E6E5;stroke-miterlimit:10;" x1="598.928" y1="523.891" x2="199.973" y2="177.299"/>
			<line style="fill:none;stroke:#E6E6E5;stroke-miterlimit:10;" x1="72.138" y1="687.975" x2="203.029" y2="337.562"/>
			<line style="fill:none;stroke:#E6E6E5;stroke-miterlimit:10;" x1="72.138" y1="687.975" x2="402.818" y2="839.504"/>
			<line style="fill:none;stroke:#E6E6E5;stroke-miterlimit:10;" x1="19.929" y1="456.042" x2="402.818" y2="839.504"/>
			<line style="fill:none;stroke:#E6E6E5;stroke-miterlimit:10;" x1="199.973" y1="177.299" x2="544.688" y2="328.867"/>
			<line style="fill:none;stroke:#E6E6E5;stroke-miterlimit:10;" x1="199.973" y1="177.299" x2="402.818" y2="598.38"/>
			<line style="fill:none;stroke:#E6E6E5;stroke-miterlimit:10;" x1="199.973" y1="177.299" x2="19.929" y2="456.042"/>
			<line style="fill:none;stroke:#E6E6E5;stroke-miterlimit:10;" x1="598.928" y1="523.891" x2="402.818" y2="839.504"/>
			<polyline style="fill:none;stroke:#E6E6E5;stroke-miterlimit:10;" points="72.138,687.975 315.16,523.221 0.527,2.269 			"/>
		</g>
		<g>
			<path style="fill:none;stroke:#E6E6E5;stroke-miterlimit:10;" d="M699.024,523.891H598.928H699.024
				c0-0.226,0.023-0.444,0.023-0.67"/>
		</g>
		<g>
			<polyline style="fill:none;stroke:#E6E6E5;stroke-miterlimit:10;" points="625.258,787.354 544.688,718.897 625.258,787.354 			
				"/>
			<polyline style="fill:none;stroke:#E6E6E5;stroke-miterlimit:10;" points="433.563,950.106 402.818,839.504 433.563,950.106 			
				"/>
		</g>
		<polyline style="fill:none;stroke:#E6E6E5;stroke-miterlimit:10;" points="433.893,96.467 402.818,208.281 433.893,96.467 		"/>
		<polyline style="fill:none;stroke:#E6E6E5;stroke-miterlimit:10;" points="625.801,259.971 544.688,328.862 625.801,259.971 		"/>
	</g>
	<line style="fill:none;stroke:#E6E6E5;stroke-miterlimit:10;" x1="230.348" y1="666.776" x2="0.527" y2="950.106"/>
</g>
</svg>
