<?xml version="1.0" encoding="utf-8"?>
<!-- Generator: Adobe Illustrator 15.0.0, SVG Export Plug-In . SVG Version: 6.00 Build 0)  -->
<!DOCTYPE svg PUBLIC "-//W3C//DTD SVG 1.1//EN" "http://www.w3.org/Graphics/SVG/1.1/DTD/svg11.dtd">
<svg version="1.1" id="Layer_1" xmlns="http://www.w3.org/2000/svg" xmlns:xlink="http://www.w3.org/1999/xlink" x="0px" y="0px"
	 width="772.716px" height="896.795px" viewBox="0 0 772.716 896.795" enable-background="new 0 0 772.716 896.795"
	 xml:space="preserve">
<g>
	<g>
		<g>
			<line fill="none" stroke="#E6E6E6" stroke-miterlimit="10" x1="445.021" y1="792.148" x2="601.962" y2="309.008"/>
			<line fill="none" stroke="#E6E6E6" stroke-miterlimit="10" x1="445.021" y1="194.916" x2="445.021" y2="792.148"/>
			<line fill="none" stroke="#E6E6E6" stroke-miterlimit="10" x1="21.463" y1="429.337" x2="445.021" y2="194.916"/>
			<line fill="none" stroke="#E6E6E6" stroke-miterlimit="10" x1="661.962" y1="493.531" x2="220.63" y2="165.604"/>
			<line fill="none" stroke="#E6E6E6" stroke-miterlimit="10" x1="79.218" y1="648.779" x2="224.011" y2="317.237"/>
			<line fill="none" stroke="#E6E6E6" stroke-miterlimit="10" x1="79.218" y1="648.779" x2="445.021" y2="792.148"/>
			<line fill="none" stroke="#E6E6E6" stroke-miterlimit="10" x1="21.463" y1="429.337" x2="445.021" y2="792.148"/>
			<line fill="none" stroke="#E6E6E6" stroke-miterlimit="10" x1="220.63" y1="165.604" x2="601.962" y2="309.01"/>
			<line fill="none" stroke="#E6E6E6" stroke-miterlimit="10" x1="220.63" y1="165.604" x2="445.021" y2="564.01"/>
			<line fill="none" stroke="#E6E6E6" stroke-miterlimit="10" x1="220.63" y1="165.604" x2="21.463" y2="429.337"/>
			<line fill="none" stroke="#E6E6E6" stroke-miterlimit="10" x1="661.962" y1="493.531" x2="445.021" y2="792.148"/>
			<polyline fill="none" stroke="#E6E6E6" stroke-miterlimit="10" points="79.218,648.779 348.052,492.898 0,0 			"/>
		</g>
		<g>
			<path fill="none" stroke="#E6E6E6" stroke-miterlimit="10" d="M772.69,493.531H661.962H772.69c0-0.213,0.025-0.42,0.025-0.633"/>
		</g>
		<g>
			<polyline fill="none" stroke="#E6E6E6" stroke-miterlimit="10" points="691.089,742.807 601.962,678.037 691.089,742.807 			"/>
			<polyline fill="none" stroke="#E6E6E6" stroke-miterlimit="10" points="479.032,896.795 445.021,792.148 479.032,896.795 			"/>
		</g>
		<polyline fill="none" stroke="#E6E6E6" stroke-miterlimit="10" points="479.397,89.125 445.021,194.918 479.397,89.125 		"/>
		<polyline fill="none" stroke="#E6E6E6" stroke-miterlimit="10" points="691.688,243.824 601.962,309.006 691.688,243.824 		"/>
	</g>
	<line fill="none" stroke="#E6E6E6" stroke-miterlimit="10" x1="254.232" y1="628.723" x2="0" y2="896.795"/>
</g>
</svg>
