<?xml version="1.0" encoding="iso-8859-1"?>
<!-- Generator: Adobe Illustrator 16.0.0, SVG Export Plug-In . SVG Version: 6.00 Build 0)  -->
<!DOCTYPE svg PUBLIC "-//W3C//DTD SVG 1.1//EN" "http://www.w3.org/Graphics/SVG/1.1/DTD/svg11.dtd">
<svg version="1.1" id="Layer_1" xmlns="http://www.w3.org/2000/svg" xmlns:xlink="http://www.w3.org/1999/xlink" x="0px" y="0px"
	 width="200px" height="56px" viewBox="0 0 200 56" style="enable-background:new 0 0 200 56;" xml:space="preserve">
<path style="fill:#FFFFFF;" d="M27.873,56.305L2.002,28.597l40.325,10.188l7.105,17.016l-0.894,0.505h2.398l-0.058-0.138
	l17.567-9.927v10.063h1.231v-9.791l10.693,9.791h1.609L70.668,45.947l40.988,10.357h1.991L70.103,45.303l29.821-16.847l48.457,27.38
	l-0.832,0.469h2.712l-0.311-0.176l17.794-10.053l4.271,10.229h1.292l-4.522-10.819l30.73-17.376L173.252,0h-1.522l24.16,25.853
	L150.209,0.049L150.294,0h-3.321l0.994,0.132L99.721,27.387L88.277,0h-0.646l11.57,27.684L69.677,44.362V0h-1.231v44.884
	l-24.908-6.296L31.979,10.926L51.312,0h-2.093L31.582,9.968L27.418,0h-1.293l4.411,10.562L0.504,27.537H0.5v1.072l25.857,27.695
	H27.873L27.873,56.305z M197.62,28.015l-29.23,16.516L150.33,1.295L197.62,28.015z M148.84,0.821l18.503,44.299l-18.439,10.42
	l-48.46-27.378L148.84,0.821z M68.046,45.282l-17.567,9.929l-6.71-16.061L68.046,45.282z M30.937,11.521l11.156,26.701L1.732,28.026
	L30.937,11.521z"/>
</svg>
