<?xml version="1.0" encoding="iso-8859-1"?>
<!-- Generator: Adobe Illustrator 16.0.0, SVG Export Plug-In . SVG Version: 6.00 Build 0)  -->
<!DOCTYPE svg PUBLIC "-//W3C//DTD SVG 1.1//EN" "http://www.w3.org/Graphics/SVG/1.1/DTD/svg11.dtd">
<svg version="1.1" id="Layer_1" xmlns="http://www.w3.org/2000/svg" xmlns:xlink="http://www.w3.org/1999/xlink" x="0px" y="0px"
	 width="273px" height="56px" viewBox="0 0 273 56" style="enable-background:new 0 0 273 56;" xml:space="preserve">
<path style="fill:#FFFFFF;" d="M37.549,55.99L2.061,28.442l55.317,10.13l9.746,16.916l-1.227,0.503h3.29l-0.08-0.137l24.099-9.87
	V55.99h1.688v-9.733l14.668,9.733h2.208L96.253,45.693l56.226,10.297h2.732L95.478,45.051l40.907-16.749l66.47,27.222l-1.141,0.467
	h3.72l-0.427-0.175l24.411-9.995l5.858,10.17h1.771l-6.202-10.758L273,27.957L236.973,0.011h-2.088l33.14,25.704l-62.66-25.656
	l0.116-0.048h-4.555l1.363,0.131L136.106,27.24L120.409,0.011h-0.887l15.871,27.524l-40.5,16.582V0.011h-1.688v44.624l-34.168-6.258
	L43.182,10.874l26.52-10.863h-2.871L42.637,9.921l-5.711-9.911H35.15l6.051,10.5L0.005,27.389H0v1.066L35.47,55.99H37.549
	L37.549,55.99z M270.398,27.864l-40.097,16.422L205.529,1.299L270.398,27.864z M203.484,0.827l25.381,44.043l-25.293,10.358
	l-66.476-27.218L203.484,0.827z M92.656,45.031l-24.097,9.871l-9.204-15.968L92.656,45.031z M41.751,11.464l15.302,26.546
	L1.69,27.875L41.751,11.464z"/>
</svg>
