<?xml version="1.0" encoding="iso-8859-1"?>
<!-- Generator: Adobe Illustrator 16.0.4, SVG Export Plug-In . SVG Version: 6.00 Build 0)  -->
<!DOCTYPE svg PUBLIC "-//W3C//DTD SVG 1.1//EN" "http://www.w3.org/Graphics/SVG/1.1/DTD/svg11.dtd">
<svg version="1.1" id="Ebene_1" xmlns="http://www.w3.org/2000/svg" xmlns:xlink="http://www.w3.org/1999/xlink" x="0px" y="0px"
	 viewBox="0 0 218.915 213.529" enable-background="new 0 0 218.915 213.529"
	 xml:space="preserve">
<g>
	<g>
		<g>
			<g>
				<path fill="#FFFFFF" d="M44.312,62.555"/>
			</g>
			<g>
				<path fill="#FFFFFF" d="M84.582,186.523"/>
			</g>
			<g>
				<path fill="#FFFFFF" d="M174.645,62.555"/>
			</g>
			<g>
				<path fill="#FFFFFF" d="M84.582,186.523"/>
			</g>
			<g>
				<path fill="#FFFFFF" d="M190.041,109.9"/>
			</g>
			<g>
				<path fill="#FFFFFF" d="M84.582,33.277"/>
			</g>
			<g>
				<path fill="#FFFFFF" d="M44.312,157.246"/>
			</g>
			<g>
				<path fill="#FFFFFF" d="M134.375,33.277"/>
			</g>
			<g>
				<path fill="#FFFFFF" d="M28.917,109.9"/>
			</g>
			<g>
				<path fill="#FFFFFF" d="M174.645,157.244"/>
			</g>
			<g>
				<path fill="#FFFFFF" d="M134.375,33.277"/>
			</g>
			<g>
				<path fill="#FFFFFF" d="M134.375,186.523"/>
			</g>
			<g>
				<path fill="#FFFFFF" d="M44.312,62.555"/>
			</g>
			<g>
				<path fill="#FFFFFF" d="M174.645,157.244"/>
			</g>
			<g>
				<path fill="#FFFFFF" d="M28.917,109.9"/>
			</g>
			<g>
				<path fill="#FFFFFF" d="M84.582,33.277"/>
			</g>
			<g>
				<path fill="#FFFFFF" d="M44.312,157.246"/>
			</g>
			<g>
				<path fill="#FFFFFF" d="M174.645,157.244"/>
			</g>
			<g>
				<path fill="#FFFFFF" d="M84.582,33.277"/>
			</g>
			<g>
				<g>
					<g>
						<path fill="#FFFFFF" d="M109.491,206.134c1.644,0,2.955,1.311,2.955,2.955s-1.311,2.955-2.955,2.955
							c-1.645,0-2.955-1.311-2.955-2.955S107.847,206.134,109.491,206.134z"/>
					</g>
				</g>
				<g>
					<g>
						<path fill="#FFFFFF" d="M157.442,188.427l9.576,13.18l-4.041-16.884l0.955-0.694l14.734,8.956l-9.5-13.076l1.061-0.771
							l10.709,14.739l-1.518,1.103l-14.963-9.139l4.174,16.978l-1.539,1.118l-10.709-14.739L157.442,188.427z"/>
					</g>
				</g>
				<g>
					<g>
						<path fill="#FFFFFF" d="M196.621,143.209c-0.677-1.408-0.926-3.137-0.314-5.019s1.829-3.135,3.205-3.876
							c2.516-1.344,5.448-0.635,7.94,0.176c2.493,0.81,5.256,1.951,6.503,4.518c0.676,1.408,0.926,3.138,0.314,5.02
							s-1.83,3.134-3.205,3.875c-2.517,1.344-5.423,0.643-7.916-0.167C200.656,146.926,197.867,145.775,196.621,143.209z
							 M210.534,146.704c1.175-0.618,2.052-1.738,2.488-3.082c0.437-1.345,0.386-2.766-0.201-3.956
							c-1.08-2.242-3.746-3.189-5.799-3.856c-2.051-0.667-4.788-1.476-6.981-0.296c-1.174,0.618-2.051,1.738-2.487,3.082
							s-0.386,2.766,0.2,3.955c1.082,2.243,3.771,3.197,5.823,3.865C205.629,147.082,208.342,147.883,210.534,146.704z"/>
					</g>
				</g>
				<g>
					<g>
						<path fill="#FFFFFF" d="M199.646,85.727c-1.376-0.742-2.593-1.994-3.204-3.876s-0.363-3.61,0.313-5.019
							c1.247-2.566,4.034-3.717,6.527-4.526c2.493-0.811,5.398-1.511,7.916-0.167c1.376,0.742,2.594,1.994,3.205,3.876
							s0.362,3.61-0.315,5.02c-1.246,2.566-4.01,3.706-6.502,4.517C205.094,86.36,202.163,87.07,199.646,85.727z M212.957,80.375
							c0.585-1.19,0.637-2.612,0.2-3.956s-1.314-2.464-2.487-3.081c-2.193-1.18-4.905-0.379-6.958,0.288s-4.742,1.621-5.823,3.864
							c-0.586,1.189-0.638,2.611-0.2,3.955c0.437,1.344,1.313,2.464,2.487,3.083c2.193,1.179,4.93,0.371,6.982-0.296
							S211.875,82.618,212.957,80.375z"/>
					</g>
				</g>
				<g>
					<g>
						<path fill="#FFFFFF" d="M160.278,33.633l10.709-14.738l1.08,0.785l-9.969,13.72l7.65,5.559l-0.74,1.019L160.278,33.633z"/>
					</g>
				</g>
				<g>
					<g>
						<path fill="#FFFFFF" d="M114.808,16.959c-1.311,1.054-2.955,1.26-4.574,1.26h-6.449V0h6.449c1.362,0,2.8,0.206,3.957,0.977
							s1.876,2.133,1.876,3.495c0,1.979-0.822,3.7-2.903,4.265c2.261,0.54,3.314,2.364,3.314,4.446
							C116.478,14.621,115.964,16.034,114.808,16.959z M110.234,1.26h-5.113v6.809h5.113c2.518,0,4.471-0.591,4.471-3.494
							C114.706,2.03,112.444,1.26,110.234,1.26z M110.234,9.354h-5.113v7.605h5.113c2.493,0,4.882-0.719,4.882-3.88
							C115.117,10.099,112.88,9.354,110.234,9.354z"/>
					</g>
				</g>
				<g>
					<g>
						<path fill="#FFFFFF" d="M58.712,31.414c-0.254,1.486-1.104,3.026-2.664,4.159l-4.885,3.55L40.454,24.384l4.885-3.55
							c1.561-1.133,3.287-1.466,4.779-1.248c2.754,0.381,4.582,2.547,6.078,4.605C57.69,26.249,59.202,28.677,58.712,31.414z
							 M49.843,20.867c-1.264-0.164-2.631,0.227-3.732,1.026l-3.805,2.765l9.168,12.619l3.805-2.765
							c1.102-0.8,1.896-1.981,2.131-3.23c0.406-2.327-1.031-4.524-2.314-6.291C53.81,23.224,52.167,21.18,49.843,20.867z"/>
					</g>
				</g>
				<g>
					<g>
						<path fill="#FFFFFF" d="M20.902,86.471l-17.327-5.63l3.605-11.095l1.223,0.396l-3.185,9.8l6.354,2.064l2.804-8.626
							l1.223,0.396l-2.804,8.627l7.307,2.374l3.185-9.8l1.222,0.397L20.902,86.471z"/>
					</g>
				</g>
				<g>
					<g>
						<path fill="#FFFFFF" d="M23.952,143.027l-17.326,5.63l-3.605-11.096l1.222-0.396l3.185,9.801l6.354-2.064l-2.803-8.628
							l1.223-0.397l2.803,8.628l7.307-2.374l-3.185-9.801l1.223-0.397L23.952,143.027z"/>
					</g>
				</g>
				<g>
					<g>
						<path fill="#FFFFFF" d="M50.661,182.067c1.709-0.252,3.516,0.363,5.221,1.603c1.684,1.223,2.746,2.82,2.969,4.569
							c0.168,1.298-0.088,2.7-0.801,3.897l-1.121-0.815c0.529-0.948,0.703-2.061,0.564-3.051c-0.201-1.385-1.141-2.671-2.365-3.562
							c-1.27-0.922-2.779-1.511-4.148-1.33c-0.883,0.121-1.734,0.551-2.414,1.485c-1.027,1.414-0.816,3.441,0.785,4.953l2.486,2.348
							c1.883,1.78,2.561,4.083,0.914,6.349c-0.891,1.227-2.066,1.707-3.314,1.85c-1.518,0.167-3.201-0.357-4.572-1.354
							c-1.58-1.147-2.691-2.94-2.812-4.521c-0.098-1.181,0.047-2.252,0.734-3.372l1.102,0.8c-0.441,0.824-0.619,1.552-0.549,2.461
							c0.07,1.258,0.928,2.611,2.281,3.594c1.059,0.771,2.273,1.24,3.455,1.146c0.924-0.092,1.857-0.46,2.553-1.417
							c1.27-1.746,0.506-3.317-0.727-4.466l-2.527-2.377c-2.076-1.952-2.441-4.728-0.932-6.807
							C48.378,182.76,49.476,182.255,50.661,182.067z"/>
					</g>
				</g>
			</g>
		</g>
	</g>
	<path fill="#FFFFFF" d="M143.196,6.133"/>
	<path fill="#FFFFFF" d="M218.915,110.402v-1H190.16l-24.437-17.764l9.348-28.775l22.892-16.633l-0.588-0.809l-22.817,16.579
		l-39.683-12.9V33.358l8.797-27.071l-0.951-0.309l-8.771,26.99l-15.054,10.938L84.979,32.881l-8.74-26.896l-0.951,0.309l8.74,26.896
		l-20.97,28.864H44.473L21.6,45.438l-0.588,0.809l23.005,16.713l0,0l12.033,8.743l-27.388,37.7H0v1h28.755l24.472,17.779
		l-9.341,28.756l-22.72,16.506l0.588,0.809l22.646-16.451l50.093,16.283L84.201,186.2l-0.064,0.075l-8.752,26.936l0.951,0.309
		l8.691-26.748l10.492-12.354l38.458,12.502l8.649,26.609l0.951-0.309l-8.648-26.609l27.376-37.711l34.916,25.367l0.588-0.809
		l-34.916-25.368l27.359-37.688H218.915z M189.161,109.911l-32.84,10.672l9.077-27.944L189.161,109.911z M69.833,139.012
		l39.431-28.648l24.262,17.628l-54.49,17.707L69.833,139.012z M77.861,146.08l-32.126,10.44l23.248-16.891L77.861,146.08z
		 M109.852,109.555l12.259-37.729l11.764-2.015v57.198L109.852,109.555z M70.168,80.724l51.387-8.803l-12.128,37.325L70.168,80.724z
		 M122.286,71.288l2.625-8.078l8.493,6.174L122.286,71.288z M126.399,63.055h7.476v5.435L126.399,63.055z M125.286,62.055
		L129.7,48.47l4.175,1.357v12.228H125.286z M124.811,61.9l-14.487-10.53l8.747-6.355l10.154,3.301L124.811,61.9z M123.322,62.055
		H95.619l13.854-10.066L123.322,62.055z M124.436,63.055l-2.707,8.329l-50.964,8.73l23.479-17.06H124.436z M69.196,80.018
		l-11.75-8.537l6.121-8.426h28.975L69.196,80.018z M108.839,110.055l-39.431,28.648l-15.006-10.902L69.46,81.444L108.839,110.055z
		 M133.071,128.664l-29.568,34.812l-23.967-17.414L133.071,128.664z M133.875,129.262v56.28l-29.561-21.478L133.875,129.262z
		 M134.875,128.971l14.296,10.387l-14.296,44.01V128.971z M135.201,127.972l19.754-6.419l-5.459,16.805L135.201,127.972z
		 M134.875,127.553V70.452l29.673,21.568l-9.402,28.944L134.875,127.553z M134.875,69.216v-6.161h39.083l-9.085,27.966
		L134.875,69.216z M171.491,62.055h-36.616V50.152L171.491,62.055z M130.009,47.52l3.865-11.896v13.151L130.009,47.52z
		 M133.768,34.336l-4.233,13.029l-9.464-3.077L133.768,34.336z M109.474,50.752L87.43,34.729l30.465,9.903L109.474,50.752z
		 M84.692,33.977l23.93,17.394L93.918,62.055H64.294L84.692,33.977z M45.849,63.055h16.483l-5.694,7.839L45.849,63.055z
		 M68.346,80.635l-37.17,27.008L56.859,72.29L68.346,80.635z M29.768,109.902l38.479-27.959l-14.695,45.239L29.768,109.902z
		 M68.558,139.321l-23.426,17.021l8.945-27.541L68.558,139.321z M45.524,157.114l32.836-10.671l24.494,17.796l-7.662,9.021
		L45.524,157.114z M96.22,173.594l7.445-8.766l27.861,20.243L96.22,173.594z M135.825,183.674l14.196-43.699l11.476,8.338
		L135.825,183.674z M150.346,138.976l5.783-17.805l32.811-10.662l-26.856,36.994L150.346,138.976z"/>
</g>
</svg>
