<?xml version="1.0" encoding="utf-8"?>
<!-- Generator: Adobe Illustrator 16.0.0, SVG Export Plug-In . SVG Version: 6.00 Build 0)  -->
<!DOCTYPE svg PUBLIC "-//W3C//DTD SVG 1.1//EN" "http://www.w3.org/Graphics/SVG/1.1/DTD/svg11.dtd">
<svg version="1.1" id="Layer_1" xmlns="http://www.w3.org/2000/svg" xmlns:xlink="http://www.w3.org/1999/xlink" x="0px" y="0px"
	 width="826px" height="35.11px" viewBox="0 0 826 35.11" enable-background="new 0 0 826 35.11" xml:space="preserve">
<g>
</g>
<g>
	<g>
		<g id="XMLID_3_">
			<g>
			</g>
			<g>
				<polyline fill="none" stroke="#E6E6E6" stroke-miterlimit="10" points="390.538,2.556 405.535,17.553 399.537,23.551 				"/>
				<polyline fill="none" stroke="#E6E6E6" stroke-miterlimit="10" points="425.538,22.554 420.537,17.553 435.535,2.556 
					450.537,17.553 435.535,32.551 402.809,24.368 399.537,23.551 375.541,17.553 				"/>
				<polyline fill="none" stroke="#E6E6E6" stroke-miterlimit="10" points="435.535,2.556 408.537,20.555 402.809,24.368 
					390.538,32.551 375.541,17.553 				"/>
			</g>
		</g>
		<line fill="none" stroke="#E6E6E6" x1="375.541" y1="17.553" x2="413.039" y2="10.055"/>
		<line fill="none" stroke="#E6E6E6" x1="413.039" y1="25.052" x2="420.537" y2="17.553"/>
		<polyline fill="none" stroke="#E6E6E6" stroke-miterlimit="10" points="375.541,17.553 390.538,2.556 413.039,10.055 
			405.535,17.553 408.537,20.555 413.039,25.052 425.538,22.554 450.537,17.553 420.537,17.553 		"/>
		<line fill="none" stroke="#E6E6E6" stroke-miterlimit="10" x1="435.535" y1="32.551" x2="425.538" y2="22.554"/>
		<line fill="none" stroke="#E6E6E6" stroke-miterlimit="10" x1="399.537" y1="23.551" x2="390.538" y2="32.551"/>
	</g>
	<line fill="none" stroke="#E6E6E6" stroke-miterlimit="10" x1="0" y1="17.556" x2="375.669" y2="17.556"/>
	<line fill="none" stroke="#E6E6E6" stroke-miterlimit="10" x1="826" y1="17.556" x2="450.537" y2="17.556"/>
</g>
</svg>
