<?xml version="1.0" encoding="utf-8"?>
<!-- Generator: Adobe Illustrator 16.0.0, SVG Export Plug-In . SVG Version: 6.00 Build 0)  -->
<!DOCTYPE svg PUBLIC "-//W3C//DTD SVG 1.1//EN" "http://www.w3.org/Graphics/SVG/1.1/DTD/svg11.dtd">
<svg version="1.1" id="Layer_1" xmlns="http://www.w3.org/2000/svg" xmlns:xlink="http://www.w3.org/1999/xlink" x="0px" y="0px"
	 width="296px" height="35.106px" viewBox="0 0 296 35.106" enable-background="new 0 0 296 35.106" xml:space="preserve">
<g id="XMLID_3_">
	<g>
	</g>
	<g>
		<polyline fill="none" stroke="#E6E6E6" stroke-miterlimit="10" points="125.473,2.554 140.471,17.551 134.473,23.549 		"/>
		<line fill="none" stroke="#E6E6E6" x1="0.001" y1="17.551" x2="110.476" y2="17.551"/>
		<line fill="none" stroke="#E6E6E6" stroke-miterlimit="10" x1="296.001" y1="17.551" x2="185.473" y2="17.551"/>
		<polyline fill="none" stroke="#E6E6E6" stroke-miterlimit="10" points="160.474,22.552 155.473,17.551 170.471,2.554 
			185.473,17.551 170.471,32.549 137.745,24.366 134.473,23.549 110.476,17.551 		"/>
		<polyline fill="none" stroke="#E6E6E6" stroke-miterlimit="10" points="170.471,2.554 143.472,20.553 137.745,24.366 
			125.473,32.549 110.476,17.551 		"/>
	</g>
</g>
<line fill="none" stroke="#E6E6E6" x1="110.476" y1="17.551" x2="147.975" y2="10.053"/>
<line fill="none" stroke="#E6E6E6" x1="147.975" y1="25.05" x2="155.473" y2="17.551"/>
<polyline fill="none" stroke="#E6E6E6" stroke-miterlimit="10" points="110.476,17.551 125.473,2.554 147.975,10.053 
	140.471,17.551 143.472,20.553 147.975,25.05 160.474,22.552 185.473,17.551 155.473,17.551 "/>
<line fill="none" stroke="#E6E6E6" stroke-miterlimit="10" x1="170.471" y1="32.549" x2="160.474" y2="22.552"/>
<line fill="none" stroke="#E6E6E6" stroke-miterlimit="10" x1="134.473" y1="23.549" x2="125.473" y2="32.549"/>
</svg>
