<?xml version="1.0" encoding="iso-8859-1"?>
<!-- Generator: Adobe Illustrator 16.0.0, SVG Export Plug-In . SVG Version: 6.00 Build 0)  -->
<!DOCTYPE svg PUBLIC "-//W3C//DTD SVG 1.1//EN" "http://www.w3.org/Graphics/SVG/1.1/DTD/svg11.dtd">
<svg version="1.1" id="Layer_1" xmlns="http://www.w3.org/2000/svg" xmlns:xlink="http://www.w3.org/1999/xlink" x="0px" y="0px"
	 width="2100px" height="420px" viewBox="0 0 2100 420" style="enable-background:new 0 0 2100 420;" xml:space="preserve">
<g>
	<g>
		<g>
			<defs>
				<rect id="SVGID_1_" x="1" y="-1" width="2099" height="420.64"/>
			</defs>
			<clipPath id="SVGID_2_">
				<use xlink:href="#SVGID_1_"  style="overflow:visible;"/>
			</clipPath>
			<g style="clip-path:url(#SVGID_2_);">
				<path style="fill:none;stroke:#E6E6E5;stroke-miterlimit:10;" d="M1123.579,192.174"/>
				<path style="fill:none;stroke:#E6E6E5;stroke-miterlimit:10;" d="M977.823,192.174"/>
				<path style="fill:none;stroke:#E6E6E5;stroke-miterlimit:10;" d="M1123.579,192.174"/>
				<line style="fill:none;stroke:#E6E6E5;stroke-miterlimit:10;" x1="247.827" y1="192.174" x2="977.823" y2="192.174"/>
				<line style="fill:none;stroke:#E6E6E5;stroke-miterlimit:10;" x1="1853.172" y1="192.174" x2="1123.579" y2="192.174"/>
				<path style="fill:none;stroke:#E6E6E5;stroke-miterlimit:10;" d="M977.823,192.174"/>
				<line style="fill:none;stroke:#E6E6E5;stroke-miterlimit:10;" x1="247.827" y1="192.174" x2="-516.623" y2="-161.184"/>
				<line style="fill:none;stroke:#E6E6E5;stroke-miterlimit:10;" x1="-833.887" y1="-45.901" x2="247.827" y2="192.174"/>
				<line style="fill:none;stroke:#E6E6E5;stroke-miterlimit:10;" x1="-582.712" y1="494.144" x2="247.827" y2="192.174"/>
				<line style="fill:none;stroke:#E6E6E5;stroke-miterlimit:10;" x1="3073.58" y1="192.174" x2="1969.78" y2="394.995"/>
				<line style="fill:none;stroke:#E6E6E5;stroke-miterlimit:10;" x1="1853.172" y1="192.174" x2="2651.952" y2="-136.063"/>
				<line style="fill:none;stroke:#E6E6E5;stroke-miterlimit:10;" x1="1969.78" y1="394.995" x2="2158.264" y2="66.802"/>
				<line style="fill:none;stroke:#E6E6E5;stroke-miterlimit:10;" x1="1969.78" y1="394.995" x2="2651.952" y2="520.413"/>
				<line style="fill:none;stroke:#E6E6E5;stroke-miterlimit:10;" x1="1853.172" y1="192.174" x2="2651.952" y2="520.413"/>
				<line style="fill:none;stroke:#E6E6E5;stroke-miterlimit:10;" x1="2274.807" y1="-136.069" x2="1853.172" y2="192.174"/>
				<line style="fill:none;stroke:#E6E6E5;stroke-miterlimit:10;" x1="1969.78" y1="394.995" x2="2463.491" y2="191.477"/>
				<g>
					<g>
						<g id="XMLID_4_">
							<g>
								<polyline style="fill:none;stroke:#E6E6E5;stroke-miterlimit:10;" points="1006.968,175.688 1036.118,192.172 
									1024.46,198.766 								"/>
								<polyline style="fill:none;stroke:#E6E6E5;stroke-miterlimit:10;" points="1074.995,197.67 1065.274,192.172 
									1094.423,175.688 1123.579,192.172 1094.423,208.658 1030.818,199.665 1024.46,198.766 977.823,192.172 								"/>
								<polyline style="fill:none;stroke:#E6E6E5;stroke-miterlimit:10;" points="1094.423,175.688 1041.952,195.473 
									1030.818,199.665 1006.968,208.658 977.823,192.172 								"/>
							</g>
						</g>
						<line style="fill:none;stroke:#E6E6E5;" x1="977.823" y1="192.172" x2="1050.701" y2="183.932"/>
						<line style="fill:none;stroke:#E6E6E5;" x1="1050.701" y1="200.417" x2="1065.274" y2="192.172"/>
						<polyline style="fill:none;stroke:#E6E6E5;stroke-miterlimit:10;" points="977.823,192.172 1006.968,175.688 
							1050.701,183.932 1036.118,192.172 1041.952,195.473 1050.701,200.417 1074.995,197.67 1123.579,192.172 1065.274,192.172 
													"/>
						<line style="fill:none;stroke:#E6E6E5;stroke-miterlimit:10;" x1="1094.423" y1="208.658" x2="1074.995" y2="197.67"/>
						<line style="fill:none;stroke:#E6E6E5;stroke-miterlimit:10;" x1="1024.46" y1="198.766" x2="1006.968" y2="208.658"/>
					</g>
				</g>
			</g>
		</g>
	</g>
</g>
</svg>
