<?xml version="1.0" encoding="iso-8859-1"?>
<!-- Generator: Adobe Illustrator 16.0.0, SVG Export Plug-In . SVG Version: 6.00 Build 0)  -->
<!DOCTYPE svg PUBLIC "-//W3C//DTD SVG 1.1//EN" "http://www.w3.org/Graphics/SVG/1.1/DTD/svg11.dtd">
<svg version="1.1" id="Layer_1" xmlns="http://www.w3.org/2000/svg" xmlns:xlink="http://www.w3.org/1999/xlink" x="0px" y="0px"
	 width="1903px" height="420px" viewBox="0 0 1903 420" style="enable-background:new 0 0 1903 420;" xml:space="preserve">
<g>
	<g>
		<g>
			<defs>
				<rect id="SVGID_1_" x="-1" width="1903" height="420.64"/>
			</defs>
			<clipPath id="SVGID_2_">
				<use xlink:href="#SVGID_1_"  style="overflow:visible;"/>
			</clipPath>
			<g style="clip-path:url(#SVGID_2_);">
				<path style="fill:none;stroke:#E6E6E5;stroke-miterlimit:10;" d="M1016.755,193.174"/>
				<path style="fill:none;stroke:#E6E6E5;stroke-miterlimit:10;" d="M884.609,193.174"/>
				<path style="fill:none;stroke:#E6E6E5;stroke-miterlimit:10;" d="M1016.755,193.174"/>
				<line style="fill:none;stroke:#E6E6E5;stroke-miterlimit:10;" x1="222.779" y1="193.174" x2="884.609" y2="193.174"/>
				<line style="fill:none;stroke:#E6E6E5;stroke-miterlimit:10;" x1="1678.221" y1="193.174" x2="1016.755" y2="193.174"/>
				<path style="fill:none;stroke:#E6E6E5;stroke-miterlimit:10;" d="M884.609,193.174"/>
				<line style="fill:none;stroke:#E6E6E5;stroke-miterlimit:10;" x1="222.779" y1="193.174" x2="-470.289" y2="-160.184"/>
				<line style="fill:none;stroke:#E6E6E5;stroke-miterlimit:10;" x1="-757.927" y1="-44.901" x2="222.779" y2="193.174"/>
				<line style="fill:none;stroke:#E6E6E5;stroke-miterlimit:10;" x1="-530.207" y1="495.144" x2="222.779" y2="193.174"/>
				<line style="fill:none;stroke:#E6E6E5;stroke-miterlimit:10;" x1="2784.67" y1="193.174" x2="1783.94" y2="395.995"/>
				<line style="fill:none;stroke:#E6E6E5;stroke-miterlimit:10;" x1="1678.221" y1="193.174" x2="2402.412" y2="-135.063"/>
				<line style="fill:none;stroke:#E6E6E5;stroke-miterlimit:10;" x1="1783.94" y1="395.995" x2="1954.824" y2="67.802"/>
				<line style="fill:none;stroke:#E6E6E5;stroke-miterlimit:10;" x1="1783.94" y1="395.995" x2="2402.412" y2="521.413"/>
				<line style="fill:none;stroke:#E6E6E5;stroke-miterlimit:10;" x1="1678.221" y1="193.174" x2="2402.412" y2="521.413"/>
				<line style="fill:none;stroke:#E6E6E5;stroke-miterlimit:10;" x1="2060.483" y1="-135.069" x2="1678.221" y2="193.174"/>
				<line style="fill:none;stroke:#E6E6E5;stroke-miterlimit:10;" x1="1783.94" y1="395.995" x2="2231.549" y2="192.477"/>
				<g>
					<g>
						<g id="XMLID_4_">
							<g>
								<polyline style="fill:none;stroke:#E6E6E5;stroke-miterlimit:10;" points="911.033,176.688 937.461,193.172 
									926.892,199.766 								"/>
								<polyline style="fill:none;stroke:#E6E6E5;stroke-miterlimit:10;" points="972.708,198.669 963.895,193.172 
									990.321,176.688 1016.755,193.172 990.321,209.659 932.656,200.665 926.892,199.766 884.609,193.172 								"/>
								<polyline style="fill:none;stroke:#E6E6E5;stroke-miterlimit:10;" points="990.321,176.688 942.75,196.472 932.656,200.665 
									911.033,209.659 884.609,193.172 								"/>
							</g>
						</g>
						<line style="fill:none;stroke:#E6E6E5;" x1="884.609" y1="193.172" x2="950.683" y2="184.932"/>
						<line style="fill:none;stroke:#E6E6E5;" x1="950.683" y1="201.417" x2="963.895" y2="193.172"/>
						<polyline style="fill:none;stroke:#E6E6E5;stroke-miterlimit:10;" points="884.609,193.172 911.033,176.688 950.683,184.932 
							937.461,193.172 942.75,196.472 950.683,201.417 972.708,198.669 1016.755,193.172 963.895,193.172 						"/>
						<line style="fill:none;stroke:#E6E6E5;stroke-miterlimit:10;" x1="990.321" y1="209.659" x2="972.708" y2="198.669"/>
						<line style="fill:none;stroke:#E6E6E5;stroke-miterlimit:10;" x1="926.892" y1="199.766" x2="911.033" y2="209.659"/>
					</g>
				</g>
			</g>
		</g>
	</g>
</g>
</svg>
