<?xml version="1.0" encoding="iso-8859-1"?>
<!-- Generator: Adobe Illustrator 16.0.0, SVG Export Plug-In . SVG Version: 6.00 Build 0)  -->
<!DOCTYPE svg PUBLIC "-//W3C//DTD SVG 1.0//EN" "http://www.w3.org/TR/2001/REC-SVG-20010904/DTD/svg10.dtd">
<svg version="1.0" id="Layer_1" xmlns="http://www.w3.org/2000/svg" xmlns:xlink="http://www.w3.org/1999/xlink" x="0px" y="0px"
	 width="649px" height="55px" viewBox="0 0 649 55" style="enable-background:new 0 0 649 55;" xml:space="preserve">
<g>
	<g>
		<g id="XMLID_3_">
			<g>
				<polyline style="fill:none;stroke:#E6E6E5;stroke-miterlimit:10;" points="307.376,13.804 319.179,28.137 314.458,33.869 				
					"/>
				<polyline style="fill:none;stroke:#E6E6E5;stroke-miterlimit:10;" points="334.923,32.916 330.987,28.137 342.791,13.804 
					354.599,28.137 342.791,42.47 317.034,34.649 314.458,33.869 295.572,28.137 				"/>
				<polyline style="fill:none;stroke:#E6E6E5;stroke-miterlimit:10;" points="342.791,13.804 321.542,31.006 317.034,34.649 
					307.376,42.47 295.572,28.137 				"/>
			</g>
		</g>
		<line style="fill:none;stroke:#E6E6E5;" x1="295.572" y1="28.137" x2="325.086" y2="20.971"/>
		<line style="fill:none;stroke:#E6E6E5;" x1="325.086" y1="35.302" x2="330.987" y2="28.137"/>
		<polyline style="fill:none;stroke:#E6E6E5;stroke-miterlimit:10;" points="295.572,28.137 307.376,13.804 325.086,20.971 
			319.179,28.137 321.542,31.006 325.086,35.302 334.923,32.916 354.599,28.137 330.987,28.137 		"/>
		<line style="fill:none;stroke:#E6E6E5;stroke-miterlimit:10;" x1="342.791" y1="42.47" x2="334.923" y2="32.916"/>
		<line style="fill:none;stroke:#E6E6E5;stroke-miterlimit:10;" x1="314.458" y1="33.869" x2="307.376" y2="42.47"/>
	</g>
	<line style="fill:none;stroke:#E6E6E5;stroke-miterlimit:10;" x1="0" y1="28.14" x2="295.673" y2="28.14"/>
	<line style="fill:none;stroke:#E6E6E5;stroke-miterlimit:10;" x1="650.109" y1="28.14" x2="354.599" y2="28.14"/>
</g>
</svg>
