<?xml version="1.0" encoding="iso-8859-1"?>
<!-- Generator: Adobe Illustrator 16.0.0, SVG Export Plug-In . SVG Version: 6.00 Build 0)  -->
<!DOCTYPE svg PUBLIC "-//W3C//DTD SVG 1.1//EN" "http://www.w3.org/Graphics/SVG/1.1/DTD/svg11.dtd">
<svg version="1.1" id="Layer_1" xmlns="http://www.w3.org/2000/svg" xmlns:xlink="http://www.w3.org/1999/xlink" x="0px" y="0px"
	 width="309px" height="32px" viewBox="0 0 309 32" style="enable-background:new 0 0 309 32;" xml:space="preserve">
<g id="XMLID_1_">
	<g>
		<polyline style="fill:none;stroke:#E6E6E5;stroke-miterlimit:10;" points="130.983,0.554 146.639,15.551 140.378,21.549 		"/>
		<line style="fill:none;stroke:#E6E6E5;" x1="0" y1="15.551" x2="115.327" y2="15.551"/>
		<line style="fill:none;stroke:#E6E6E5;stroke-miterlimit:10;" x1="309" y1="15.551" x2="193.617" y2="15.551"/>
		<polyline style="fill:none;stroke:#E6E6E5;stroke-miterlimit:10;" points="167.521,20.552 162.3,15.551 177.957,0.554 
			193.617,15.551 177.957,30.549 143.793,22.366 140.378,21.549 115.327,15.551 		"/>
		<polyline style="fill:none;stroke:#E6E6E5;stroke-miterlimit:10;" points="177.957,0.554 149.772,18.553 143.793,22.366 
			130.983,30.549 115.327,15.551 		"/>
	</g>
</g>
<line style="fill:none;stroke:#E6E6E5;" x1="115.327" y1="15.551" x2="154.473" y2="8.053"/>
<line style="fill:none;stroke:#E6E6E5;" x1="154.473" y1="23.05" x2="162.3" y2="15.551"/>
<polyline style="fill:none;stroke:#E6E6E5;stroke-miterlimit:10;" points="115.327,15.551 130.983,0.554 154.473,8.053 
	146.639,15.551 149.772,18.553 154.473,23.05 167.521,20.552 193.617,15.551 162.3,15.551 "/>
<line style="fill:none;stroke:#E6E6E5;stroke-miterlimit:10;" x1="177.957" y1="30.549" x2="167.521" y2="20.552"/>
<line style="fill:none;stroke:#E6E6E5;stroke-miterlimit:10;" x1="140.378" y1="21.549" x2="130.983" y2="30.549"/>
</svg>
