<?xml version="1.0" encoding="utf-8"?>
<!-- Generator: Adobe Illustrator 16.0.0, SVG Export Plug-In . SVG Version: 6.00 Build 0)  -->
<!DOCTYPE svg PUBLIC "-//W3C//DTD SVG 1.1//EN" "http://www.w3.org/Graphics/SVG/1.1/DTD/svg11.dtd">
<svg version="1.1" id="Grid" xmlns="http://www.w3.org/2000/svg" xmlns:xlink="http://www.w3.org/1999/xlink" x="0px" y="0px"
	 width="1080px" height="382.68px" viewBox="0 0 1080 382.68" enable-background="new 0 0 1080 382.68" xml:space="preserve">
<g>
	<g>
		<defs>
			<rect id="SVGID_1_" y="0" width="1080" height="382.68"/>
		</defs>
		<clipPath id="SVGID_2_">
			<use xlink:href="#SVGID_1_"  overflow="visible"/>
		</clipPath>
		<g clip-path="url(#SVGID_2_)">
			<path fill="none" stroke="#E6E6E6" stroke-miterlimit="10" d="M577.602,175.741"/>
			<path fill="none" stroke="#E6E6E6" stroke-miterlimit="10" d="M502.605,175.741"/>
			<path fill="none" stroke="#E6E6E6" stroke-miterlimit="10" d="M577.602,175.741"/>
			<line fill="none" stroke="#E6E6E6" stroke-miterlimit="10" x1="127" y1="175.741" x2="502.605" y2="175.741"/>
			<line fill="none" stroke="#E6E6E6" stroke-miterlimit="10" x1="953" y1="175.741" x2="577.602" y2="175.741"/>
			<path fill="none" stroke="#E6E6E6" stroke-miterlimit="10" d="M502.605,175.741"/>
			<line fill="none" stroke="#E6E6E6" stroke-miterlimit="10" x1="127" y1="175.741" x2="-266.333" y2="-145.729"/>
			<line fill="none" stroke="#E6E6E6" stroke-miterlimit="10" x1="-429.575" y1="-40.849" x2="127" y2="175.741"/>
			<line fill="none" stroke="#E6E6E6" stroke-miterlimit="10" x1="-300.338" y1="450.46" x2="127" y2="175.741"/>
			<line fill="none" stroke="#E6E6E6" stroke-miterlimit="10" x1="1580.938" y1="175.741" x2="1012.998" y2="360.26"/>
			<line fill="none" stroke="#E6E6E6" stroke-miterlimit="10" x1="953" y1="175.741" x2="1363.996" y2="-122.874"/>
			<line fill="none" stroke="#E6E6E6" stroke-miterlimit="10" x1="1012.998" y1="360.26" x2="1109.979" y2="61.683"/>
			<line fill="none" stroke="#E6E6E6" stroke-miterlimit="10" x1="1012.998" y1="360.26" x2="1363.996" y2="474.359"/>
			<line fill="none" stroke="#E6E6E6" stroke-miterlimit="10" x1="953" y1="175.741" x2="1363.996" y2="474.359"/>
			<line fill="none" stroke="#E6E6E6" stroke-miterlimit="10" x1="1169.943" y1="-122.88" x2="953" y2="175.741"/>
			<line fill="none" stroke="#E6E6E6" stroke-miterlimit="10" x1="1012.998" y1="360.26" x2="1267.027" y2="175.108"/>
			<g>
				<g>
					<g id="XMLID_4_">
						<g>
							<polyline fill="none" stroke="#E6E6E6" stroke-miterlimit="10" points="517.602,160.743 532.6,175.74 526.602,181.738 
															"/>
							<polyline fill="none" stroke="#E6E6E6" stroke-miterlimit="10" points="552.604,180.741 547.602,175.74 562.6,160.743 
								577.602,175.74 562.6,190.738 529.873,182.556 526.602,181.738 502.605,175.74 							"/>
							<polyline fill="none" stroke="#E6E6E6" stroke-miterlimit="10" points="562.6,160.743 535.602,178.742 529.873,182.556 
								517.602,190.738 502.605,175.74 							"/>
						</g>
					</g>
					<line fill="none" stroke="#E6E6E6" x1="502.605" y1="175.74" x2="540.104" y2="168.242"/>
					<line fill="none" stroke="#E6E6E6" x1="540.104" y1="183.24" x2="547.602" y2="175.74"/>
					<polyline fill="none" stroke="#E6E6E6" stroke-miterlimit="10" points="502.605,175.74 517.602,160.743 540.104,168.242 
						532.6,175.74 535.602,178.742 540.104,183.24 552.604,180.741 577.602,175.74 547.602,175.74 					"/>
					<line fill="none" stroke="#E6E6E6" stroke-miterlimit="10" x1="562.6" y1="190.738" x2="552.604" y2="180.741"/>
					<line fill="none" stroke="#E6E6E6" stroke-miterlimit="10" x1="526.602" y1="181.738" x2="517.602" y2="190.738"/>
				</g>
			</g>
		</g>
	</g>
</g>
</svg>
