<?xml version="1.0" encoding="utf-8"?>
<!-- Generator: Adobe Illustrator 16.0.0, SVG Export Plug-In . SVG Version: 6.00 Build 0)  -->
<!DOCTYPE svg PUBLIC "-//W3C//DTD SVG 1.1//EN" "http://www.w3.org/Graphics/SVG/1.1/DTD/svg11.dtd">
<svg version="1.1" id="Layer_1" xmlns="http://www.w3.org/2000/svg" xmlns:xlink="http://www.w3.org/1999/xlink" x="0px" y="0px"
       viewBox="0 0 207 185" enable-background="new 0 0 207 185" xml:space="preserve">
	<path fill="#FDE249" d="M162.217,172.46c-2.324,0-4.648-0.887-6.422-2.66c-3.546-3.547-3.546-9.297,0.001-12.843
		c13.972-13.969,21.666-32.541,21.666-52.296c0-19.756-7.694-38.328-21.666-52.296c-13.969-13.97-32.541-21.663-52.296-21.664
		c-19.756,0-38.328,7.692-52.295,21.663C37.232,66.333,29.538,84.905,29.538,104.66c0,19.756,7.694,38.328,21.665,52.297
		c3.546,3.546,3.547,9.296,0.001,12.843s-9.296,3.548-12.843,0.001c-17.401-17.399-26.985-40.533-26.985-65.14
		c0-24.608,9.583-47.742,26.986-65.14c17.396-17.399,40.529-26.982,65.136-26.982c0.001,0,0,0,0.002,0
		c24.607,0.001,47.74,9.583,65.139,26.983c17.401,17.397,26.985,40.531,26.985,65.139c0,24.607-9.584,47.741-26.986,65.14
		C166.864,171.573,164.54,172.46,162.217,172.46z"/>
	<path  d="M44.782,172.46c-2.324,0-4.647-0.886-6.421-2.659c-17.401-17.399-26.985-40.533-26.985-65.14
		c0-24.608,9.583-47.742,26.986-65.14c17.396-17.399,40.529-26.982,65.136-26.982c0.001,0,0,0,0.002,0
		c24.607,0.001,47.74,9.583,65.139,26.983c3.546,3.546,3.546,9.296-0.001,12.842c-3.545,3.546-9.296,3.546-12.843,0
		c-13.968-13.969-32.54-21.662-52.295-21.663c-19.756,0-38.328,7.692-52.295,21.663
		c-13.972,13.969-21.666,32.541-21.666,52.297c0,19.755,7.694,38.327,21.665,52.296c3.546,3.546,3.547,9.296,0.001,12.843
		C49.431,171.573,47.106,172.46,44.782,172.46z"/>
	<text transform="matrix(1 0 0 1 61.2847 71.9883)"><tspan x="0" y="0" fill="#00A963" font-family="'Roboto-Bold'" font-size="15.7245" id="raised">€4.000.000</tspan><tspan x="5.827" y="16.007" fill="#3B3B3B" font-family="'Roboto-Light'" font-size="13.7589">invested of </tspan><tspan x="3.25" y="32.015" fill="#3B3B3B" font-family="'Roboto-Light'" font-size="13.7589">€50000 goal</tspan></text>
	<text transform="matrix(1 0 0 1 46.272 124.2734)"><tspan x="0" y="0" fill="#00A963" font-family="'Roboto-Bold'" font-size="13.7589">208.182</tspan><tspan x="53.287" y="0" fill="#00A963" font-family="'Roboto-Light'" font-size="13.7589"> </tspan><tspan x="56.908" y="0" fill="#3B3B3B" font-family="'Roboto-Light'" font-size="13.7589">investors</tspan></text>
	<text transform="matrix(1 0 0 1 60.7998 144.541)"><tspan x="0" y="0" fill="#00A963" font-family="'Roboto-Bold'" font-size="13.7589">69</tspan><tspan x="16.338" y="0" fill="#3B3B3B" font-family="'Roboto-Light'" font-size="13.7589"> days to go</tspan></text>
</svg>
